# xmcd
#
# Track frame offsets:
#	150
#	19486
#	36469
#	56573
#	72889
#	91565
#	109761
#	124199
#
# Disc length: 1696 seconds
#
# Revision: 1
# Processed by: cddbd v1.5.2PL0 Copyright (c) Steve Scherf et al.
# Submitted via: audiograbber 1.83.01
#
DISCID=69069e08
DTITLE=South Side Cindy and The Slip-Tones - Change from a Penny
DYEAR=1900
DGENRE=Blues
TTITLE0=Peace in this world
TTITLE1=Much too late
TTITLE2=Oh Road
TTITLE3=Change from a Penny
TTITLE4=Hurricane
TTITLE5=Make a move
TTITLE6=What I want
TTITLE7=Make a move (reprise)
EXTD=
EXTT0=
EXTT1=
EXTT2=
EXTT3=
EXTT4=
EXTT5=
EXTT6=
EXTT7=
PLAYORDER=
